# xmcd
#
# Track frame offsets:
#	150
#	15597
#	35792
#	59592
#	81155
#	101492
#	119717
#	142912
#	167277
#	189252
#	209112
#
# Disc length: 3438 seconds
#
# Revision: 0
# Processed by: cddbd v1.5.2PL0 Copyright (c) Steve Scherf et al.
# Submitted via: EZCDAudioConverter 1.3.4.1
#
DISCID=980d6c0b
DTITLE=Rahsaan Patterson - After Hours
DYEAR=2004
DGENRE=R&B
TTITLE0=The One for Me
TTITLE1=I Always Find Myself
TTITLE2=So Hot
TTITLE3=Burnin'
TTITLE4=Loving You
TTITLE5=The Best
TTITLE6=Don't Run So Fast
TTITLE7=You Make Life So Good
TTITLE8=Yeah Yeah Yeah
TTITLE9=Separate
TTITLE10=April's Kiss - Straighten It Out
EXTD=
EXTT0=
EXTT1=
EXTT2=
EXTT3=
EXTT4=
EXTT5=
EXTT6=
EXTT7=
EXTT8=
EXTT9=
EXTT10=
PLAYORDER=
